<?xml version="1.0" encoding="UTF-8"?><svg id="Layer_1" xmlns="http://www.w3.org/2000/svg" width="22.36mm" height="16.17mm" viewBox="0 0 63.38 45.84"><path d="m11.39,45.47c-4.26-.23-7.09-2.65-9.31-5.96C.59,37.28-.04,34.84,0,32.12c.11-6.53-.02-13.07.06-19.61C.12,7.64,2.63,4.12,6.67,1.48,8.77.11,11.09.13,13.41.02c12.61,0,25.23,0,37.84.01,5.17-.53,11.39,6.24,11.72,10.87.54,7.43.49,14.87.16,22.27-.31,6.78-4.09,10.01-10.14,12.19-.79.28-1.8.66-2.78.39-.23-.34-.59-.28-.93-.28-12.63,0-25.27,0-37.9,0Zm47.64-12.22c0-6.99,0-13.98,0-20.97.11-.24-.05-.32-.23-.39-.73-4.41-2.68-6.57-7.9-7.5-.3-.89-.82-.72-1.39-.28-1.32,0-2.63-.03-3.95-.03-10.81-.02-21.63-.03-32.44-.05-.15-.26-.26-.15-.37.04-.63.21-1.24.49-1.89.6-3.95.68-5.71,3.39-6.62,6.9,0,.23.02.47.02.7,0,6.99,0,13.98,0,20.98,0,.47-.43,1,.19,1.38.04.22.08.43.11.65-.1.25.03.35.26.4,1.36,3.56,4.37,5.73,8.19,5.73,12.41.02,24.81.05,37.22-.06,4.48-.04,8.21-3.42,8.54-7.72.18-.07.33-.15.23-.39Z"/><path d="m11.39,45.47c12.63,0,25.27,0,37.9,0,.33,0,.7-.06.93.28-12.46.01-24.92.02-37.39.02-.49,0-1.04.15-1.45-.3Z"/><path d="m50.9,4.38c-.48,0-1.05.39-1.39-.28.57-.44,1.09-.61,1.39.28Z"/><path d="m4.28,33.25c.28.43.76.84.19,1.38-.62-.39-.19-.91-.19-1.38Z"/><path d="m4.25,11.57c.32.22.35.46.02.7,0-.23-.02-.47-.02-.7Z"/><path d="m13.12,4.03c-.12.01-.24.03-.37.04.1-.19.22-.29.37-.04Z"/><path d="m4.58,35.28c.09.13.17.27.26.4-.22-.05-.36-.15-.26-.4Z"/><path d="m58.8,33.63c.08-.13.15-.26.23-.39.11.23-.05.32-.23.39Z"/><path d="m59.03,12.27c-.08-.13-.15-.26-.23-.39.18.07.34.16.23.39Z"/><path d="m22.65,12.56c.48-1.72,1.53-2.22,2.95-1.32,4.76,3.04,9.5,6.12,14.23,9.2.26.17.53.16.76.29,1.72.95,1.91,2.89.26,3.95-4.9,3.14-9.83,6.22-14.8,9.25-1.88,1.15-2.89.78-3.39-.97.14-6.8.14-13.6,0-20.4Zm4.59,15.71c2.76-1.81,5.52-3.61,8.4-5.5-2.92-1.94-5.66-3.76-8.39-5.57-.14-.32-.29-.37-.48-.03-.03.15-.07.3-.1.45-.33,3.42-.32,6.84,0,10.27.04.13.08.26.12.39.16.38.31.28.45-.01Z"/><path d="m22.65,12.56c.15,6.8.14,13.6,0,20.4-.36-.3-.27-.72-.27-1.1,0-6.07,0-12.13,0-18.2,0-.38-.09-.8.27-1.1Z"/><path d="m26.67,17.63c.26,3.42.26,6.84,0,10.27-.32-3.42-.33-6.84,0-10.27Z"/><path d="m26.79,28.29c.15,0,.3,0,.45-.01-.14.3-.29.39-.45.01Z"/><path d="m27.25,17.21c-.16-.01-.32-.02-.48-.03.18-.34.34-.29.48.03Z"/></svg>