<?xml version="1.0" encoding="utf-8"?>
<!-- Generator: Adobe Illustrator 27.5.0, SVG Export Plug-In . SVG Version: 6.00 Build 0)  -->
<svg version="1.1" id="Layer_1" xmlns="http://www.w3.org/2000/svg" xmlns:xlink="http://www.w3.org/1999/xlink" x="0px" y="0px"
	 viewBox="0 0 413.1 199.5" style="enable-background:new 0 0 413.1 199.5;" xml:space="preserve">
<path stroke="currentColor" d="M166.4,91c-8.5-0.4-14.1-5.3-18.5-11.8c-2.9-4.4-4.2-9.3-4.1-14.7c0.2-13,0-26,0.1-38.9C144,15.8,149,8.8,157,3.6
	c4.2-2.7,8.8-2.7,13.4-2.9c25,0,50.1,0,75.1,0c10.3-1.1,22.6,12.4,23.3,21.6c1.1,14.8,1,29.5,0.3,44.2C268.5,80,261,86.4,249,90.8
	c-1.6,0.6-3.6,1.3-5.5,0.8c-0.5-0.7-1.2-0.6-1.8-0.6C216.5,91,191.4,91,166.4,91L166.4,91z M261,66.7c0-13.9,0-27.8,0-41.7
	c0.2-0.5-0.1-0.6-0.5-0.8c-1.4-8.8-5.3-13.1-15.7-14.9c-0.6-1.8-1.6-1.4-2.8-0.6c-2.6,0-5.2-0.1-7.8-0.1c-21.5,0-43-0.1-64.4-0.1
	c-0.3-0.5-0.5-0.3-0.7,0.1c-1.2,0.4-2.5,1-3.8,1.2c-7.9,1.4-11.3,6.7-13.1,13.7c0,0.5,0,0.9,0.1,1.4c0,13.9,0,27.8,0,41.7
	c0,0.9-0.9,2,0.4,2.8c0.1,0.4,0.1,0.9,0.2,1.3c-0.2,0.5,0.1,0.7,0.5,0.8c2.7,7.1,8.7,11.4,16.3,11.4c24.6,0,49.3,0.1,73.9-0.1
	c8.9-0.1,16.3-6.8,17-15.3C260.9,67.3,261.2,67.2,261,66.7L261,66.7z"/>
<path stroke="currentColor" d="M312.9,167c4.4,0.3,6.1,3.5,7.6,7c-2.5,1-5.2-0.6-7.5,1.1c-1.1,0.3-0.8,1.2-0.8,1.9c0,7.2,0,14.4,0.1,21.6
	c-2.5,1.4-5.2,0.2-8.2,0.7v-67.3c0.2-0.1,0.4-0.2,0.7-0.3c9.8,0,19.5,0,29.3,0c0.2,0,0.5,0.1,0.7,0.1c3.6,1,7.2,1.8,10.2,4.2
	c5.4,4.2,8.6,9.9,8.6,16.4c-0.1,9.5-4.1,17.1-14.2,20.8c5.3,8.3,10.6,16.5,15.8,24.7c-3.1,1.4-6.3,0.4-9.4,0.6
	c-4.8-7.5-9.6-15-14.5-22.5c-1.8-2.8-3.7-5.6-6-9c2.4,0,4.3-0.1,6.1,0c5.2,0.2,9.2-1.5,11.6-6.3c2.6-5.4,2.4-10.6-0.8-15.6
	c-2.8-4.3-7-5.7-11.9-5.7c-5.8,0-11.6,0.1-17.4,0.1c-1,0.4-0.7,1.3-0.7,2c0,7.9,0,15.9,0,23.8C312.3,165.9,312.2,166.6,312.9,167
	L312.9,167z"/>
<path stroke="currentColor" d="M153.8,139.3c-2,1.7-2.4,4.3-4.3,6.3c-6.7-5.9-14.9-6.7-23.3-6.3c-5.2,0.3-9.4,3.6-10.2,8.3c-0.9,5.6,1.6,9.3,7.3,11.3
	c7.4,2.6,15.4,3.5,22.7,6.6c6.4,2.8,10.5,7.1,10.8,13.9c0.3,6.9-2.1,12.7-8.5,16.4c-4.9,2.8-10.2,3.3-15.7,3.5
	c-10.6,0.5-19.7-2.9-28.3-9.3c1.3-2.3,2.6-4.6,4.1-7.2c4.2,4.1,9.4,6.4,14.9,7.8c6.3,1.6,12.4,1.8,18.5-0.9c3.4-1.5,5.4-3.9,5.6-7.7
	c0.1-4-1.8-6.6-5.2-8.5c-5.2-2.9-11.2-3.5-16.8-5.4c-5.7-1.9-11.8-3-15.9-8.1c-3.8-4.8-3.2-15.8,1-20.6c6.7-7.5,15.2-9,24.8-7.9
	C142.1,132.5,148.1,134.7,153.8,139.3L153.8,139.3z"/>
<path stroke="currentColor" d="M214,160.2c0.1-9.2,0.1-18.4,0.2-27.6c0.2-0.2,0.4-0.4,0.5-0.6h8c0.1,0.5,0.2,1.1,0.2,1.6c0,21.1,0,42.1,0,63.2
	c0,0.5-0.1,1.1-0.2,1.7c-2.8,0-5.6,0-8.5,0v-30.1h-30.2V161c0.2-0.1,0.4-0.2,0.7-0.3c9.5,0,19,0,28.6,0
	C213.9,160.9,214.1,160.8,214,160.2L214,160.2z"/>
<path d="M256.4,179c0.1-2.2,0.9-4.2,2.2-5.9c0.2-0.1,0.4-0.3,0.5-0.5c5.3,0,10.6,0,16.3,0c-2.6-6.8-5-13.2-7.7-19.6
	c-0.7-1.7-0.7-2.9,0-4.4c1-2.4,1.8-4.8,3-7.9c8.1,19.6,16,38.6,24,57.9c-2.6,0-4.8-0.1-7.1,0c-1.9,0.1-2.6-0.5-3.3-2.3
	c-2.2-5.6-4.1-11.2-6.9-16.6c0.1-0.5-0.2-0.7-0.7-0.5h-19.7C256.9,179.2,256.7,179.1,256.4,179L256.4,179z"/>
<path d="M27.2,198.4c3.9-9.6,7.8-19,11.5-28.4c4.5-11.2,8.9-22.5,13.2-33.8c1.1-3,2.4-5,6.1-4.3c1.4,0.3,2.9,0,4.9,0
	c-2.4,5.7-4.8,11.1-7,16.6c-5.8,14-11.4,28-17.2,42.1c-0.3,0.7-0.7,1.4-1,2.1C35.7,196.8,32.2,198.7,27.2,198.4L27.2,198.4z"/>
<path d="M231.9,198.6c9.2-22.3,18.4-44.4,27.6-66.5h7.4c-4.1,10.6-8.1,21-12.2,31.3c-4.3,11-8.9,21.8-13.1,32.9
	c-0.7,1.9-1.5,2.4-3.3,2.3C236.3,198.5,234.2,198.6,231.9,198.6z"/>
<path d="M168.4,198.7c0-22-0.1-44-0.1-66.1c0.1-0.2,0.2-0.4,0.3-0.6c2.7,0,5.3,0,8,0c0.1,0.2,0.2,0.4,0.3,0.6
	c0,20.6,0,41.3-0.1,61.9c0,1.3,0,2.7-0.1,4C173.9,198.7,171.1,198.7,168.4,198.7L168.4,198.7z"/>
<path d="M412.4,132.7c0,2-0.1,4-0.1,6c-0.1,0.1-0.3,0.3-0.5,0.5c-11.9,0-23.8,0-36.2,0c0,2.9,0,5.6,0,8.2c0,6.3,0.6,5.4-5.7,5.5
	c-0.8,0-1.6-0.1-2.4-0.1c-0.2-0.2-0.4-0.4-0.5-0.6v-19.5c0.2-0.2,0.4-0.4,0.5-0.7c14.8,0,29.5,0,44.3,0L412.4,132.7L412.4,132.7z"/>
<path d="M0,132.2c0.5-0.1,0.8-0.2,1-0.2c7.9-0.3,8-0.4,10.9,6.8c4.8,11.9,9.3,23.8,14.1,35.6c0.9,2.2,0.7,3.9-0.2,5.7
	c-0.9,2.1-2,4.1-3.2,6.7C15,168.5,7.6,150.5,0,132.2L0,132.2z"/>
<path d="M407,168.1h-31.4c0,3.8-0.2,7.4,0.1,10.9c0.3,3.5-1.1,4.7-4.4,4.2c-1.2-0.2-2.5-0.1-3.7-0.1l-0.5-0.6
	c0-6.9,0.1-13.9,0.1-20.8c0.1-0.1,0.3-0.3,0.5-0.5c13.2-0.3,26.3-0.3,39.5,0c0.1,0.1,0.3,0.3,0.5,0.4c0.3,2,0.3,4,0,6
	C407.4,167.8,407.2,167.9,407,168.1L407,168.1z"/>
<path d="M367,198.5c0-2.2,0.1-4.4,0.1-6.6c0.1-0.1,0.3-0.3,0.5-0.5c15,0,30-0.1,45-0.1c0.2,0.2,0.4,0.4,0.6,0.5c0,2.2,0,4.4,0,6.6
	C397.7,198.5,382.4,198.5,367,198.5L367,198.5z"/>
<path d="M94.8,176.8c-9,0-18.1,0-27.1,0c0-2.3,0-4.6,0-7.1h27.7c0,2.2,0,4.4,0,6.6L94.8,176.8L94.8,176.8z"/>
<path d="M166.4,91c25.1,0,50.2,0,75.3,0c0.7,0,1.4-0.1,1.8,0.6c-24.8,0-49.5,0.1-74.2,0C168.3,91.6,167.2,91.9,166.4,91L166.4,91z"
	/>
<path d="M245.5,0.7c-25,0-50.1,0-75.1,0c0.7-1.1,1.9-0.6,2.8-0.6c23,0,46.1,0,69.2,0C243.4,0.1,244.7-0.3,245.5,0.7L245.5,0.7z"/>
<path d="M367,198.5c15.4,0,30.7,0,46.1,0c-0.3,1.1-1.3,0.7-2,0.7c-14.1,0-28.1,0-42.2,0C368.2,199.2,367.3,199.7,367,198.5
	L367,198.5z"/>
<path d="M95.4,169.7H67.6c0,2.5,0,4.8,0,7.1c-1.6-2.4-0.4-5-0.8-7.9c7.8,0,15.3-0.1,22.8,0.1C91.6,169.1,93.7,168,95.4,169.7z"/>
<path d="M312.9,167c-0.7-0.4-0.6-1.1-0.6-1.8c0-7.9,0-15.9,0-23.8c0-0.7-0.3-1.6,0.7-2C312.9,148.6,312.9,157.8,312.9,167L312.9,167
	z"/>
<path d="M312.4,198.7c0-7.2-0.1-14.4-0.1-21.6c0-0.7-0.4-1.6,0.8-1.9c0,6.8,0,13.6-0.1,20.4C312.9,196.6,313.4,197.8,312.4,198.7
	L312.4,198.7z"/>
<path d="M345.9,198.5c3.1-0.2,6.4,0.8,9.4-0.6c0.6,0.4,0.6,1.2,0.1,1.2C352.2,198.9,348.9,200.2,345.9,198.5L345.9,198.5z"/>
<path d="M214.4,198.5c2.8,0,5.6,0,8.5,0C220,199.4,217.2,199.5,214.4,198.5z"/>
<path d="M168.4,198.7c2.8,0,5.5-0.1,8.2-0.1C173.9,199.9,171.1,199.7,168.4,198.7z"/>
<path d="M412.4,132.7l-0.5-0.7C412.4,131.9,412.5,132.2,412.4,132.7z"/>
<path d="M259.1,172.6c-0.2,0.1-0.4,0.3-0.5,0.5C258.6,172.7,258.7,172.5,259.1,172.6z"/>
<path d="M367.5,132c-0.2,0.2-0.4,0.4-0.5,0.7C366.9,132.2,367,131.9,367.5,132z"/>
<path d="M214.8,132.1c-0.2,0.2-0.4,0.4-0.5,0.6C214.1,132.2,214.3,132,214.8,132.1z"/>
<path d="M367,152.1c0.2,0.2,0.4,0.4,0.5,0.6C367.1,152.8,366.8,152.7,367,152.1z"/>
<path d="M184.8,160.7c-0.2,0.1-0.4,0.2-0.7,0.3C184.2,160.5,184.4,160.3,184.8,160.7z"/>
<path d="M214,160.2c0.1,0.6-0.2,0.7-0.7,0.5C213.6,160.6,213.8,160.4,214,160.2z"/>
<path d="M367.6,161.2c-0.1,0.1-0.3,0.3-0.5,0.5C367,161.2,367.1,161.1,367.6,161.2z"/>
<path d="M176.8,132.7c-0.1-0.2-0.2-0.4-0.3-0.6C177.1,132.1,177.3,132.3,176.8,132.7z"/>
<path d="M407.5,161.6c-0.1-0.1-0.3-0.3-0.5-0.4C407.5,161.1,407.6,161.2,407.5,161.6z"/>
<path d="M407,168.1c0.1-0.1,0.3-0.3,0.5-0.5C407.6,168,407.5,168.2,407,168.1z"/>
<path d="M168.5,132c-0.1,0.2-0.2,0.4-0.3,0.6C167.8,132.3,168,132.1,168.5,132z"/>
<path d="M334.8,131.9c-0.2,0-0.5-0.1-0.7-0.1C334.4,131.3,334.6,131.5,334.8,131.9z"/>
<path d="M304.8,131.8c-0.2,0.1-0.4,0.2-0.7,0.3C304.2,131.5,304.4,131.3,304.8,131.8z"/>
<path d="M94.8,176.8c0.2-0.2,0.4-0.3,0.6-0.5C95.4,176.8,95.2,177,94.8,176.8z"/>
<path d="M256.4,179c0.2,0.1,0.4,0.2,0.7,0.3C256.6,179.7,256.5,179.5,256.4,179z"/>
<path d="M276.8,179.3c0.5-0.2,0.7,0,0.7,0.5C277.2,179.6,277,179.4,276.8,179.3z"/>
<path d="M367,182.4c0.2,0.2,0.4,0.4,0.5,0.6C367.1,183.1,366.8,182.9,367,182.4z"/>
<path d="M367.6,191.4c-0.1,0.1-0.3,0.3-0.5,0.5C367,191.5,367.1,191.3,367.6,191.4z"/>
<path d="M413.1,191.9c-0.2-0.2-0.4-0.4-0.6-0.5C413,191.2,413.2,191.4,413.1,191.9z"/>
<path d="M411.8,139.1c0.1-0.1,0.3-0.3,0.5-0.5C412.4,139.1,412.2,139.2,411.8,139.1z"/>
<path d="M244.8,9.4c-1,0-2.1,0.8-2.8-0.6C243.2,7.9,244.2,7.6,244.8,9.4z"/>
<path d="M152.2,66.7c0.6,0.9,1.5,1.7,0.4,2.8C151.4,68.7,152.2,67.6,152.2,66.7z"/>
<path d="M152.2,23.6c0.6,0.4,0.7,0.9,0.1,1.4C152.2,24.6,152.2,24.1,152.2,23.6z"/>
<path d="M169.8,8.7c-0.2,0-0.5,0.1-0.7,0.1C169.3,8.4,169.5,8.2,169.8,8.7z"/>
<path d="M152.8,70.7c0.2,0.3,0.3,0.5,0.5,0.8C152.9,71.4,152.6,71.2,152.8,70.7z"/>
<path d="M260.5,67.5c0.1-0.3,0.3-0.5,0.5-0.8C261.2,67.2,260.9,67.3,260.5,67.5z"/>
<path d="M261,25c-0.1-0.3-0.3-0.5-0.5-0.8C260.9,24.4,261.2,24.6,261,25z"/>
<path d="M188.7,25.6c0.9-3.4,3-4.4,5.9-2.6c9.5,6,18.9,12.1,28.3,18.3c0.5,0.3,1.1,0.3,1.5,0.6c3.4,1.9,3.8,5.7,0.5,7.8
	c-9.7,6.2-19.5,12.4-29.4,18.4c-3.7,2.3-5.7,1.5-6.7-1.9C189,52.6,189,39.1,188.7,25.6L188.7,25.6z M197.8,56.8
	c5.5-3.6,11-7.2,16.7-10.9c-5.8-3.9-11.2-7.5-16.7-11.1c-0.3-0.6-0.6-0.7-1-0.1c-0.1,0.3-0.1,0.6-0.2,0.9c-0.6,6.8-0.6,13.6,0,20.4
	c0.1,0.3,0.1,0.5,0.2,0.8C197.3,57.6,197.6,57.4,197.8,56.8L197.8,56.8z"/>
<path d="M188.7,25.6c0.3,13.5,0.3,27,0,40.5c-0.7-0.6-0.5-1.4-0.5-2.2c0-12.1,0-24.1,0-36.2C188.2,27,188,26.2,188.7,25.6
	L188.7,25.6z"/>
<path d="M196.7,35.7c0.5,6.8,0.5,13.6,0,20.4C196.1,49.3,196.1,42.5,196.7,35.7z"/>
<path d="M196.9,56.9c0.3,0,0.6,0,0.9,0C197.6,57.4,197.3,57.6,196.9,56.9z"/>
<path d="M197.9,34.8c-0.3,0-0.6,0-1-0.1C197.3,34.1,197.6,34.2,197.9,34.8z"/>
</svg>
